<svg xmlns="http://www.w3.org/2000/svg" viewBox="0 0 500 500"><defs><style>.cls-1{fill:#fff;}.cls-2{fill:#b3b3b3;}.cls-2,.cls-3,.cls-4{fill-rule:evenodd;}.cls-3{fill:#e6e6e6;}.cls-5{font-size:41.68px;font-family:MyriadPro-Regular, Myriad Pro;}.cls-6{letter-spacing:-0.01em;}.cls-7{letter-spacing:0.02em;}.cls-8{letter-spacing:-0.01em;}.cls-9{letter-spacing:-0.04em;}.cls-10{letter-spacing:-0.03em;}.cls-11{fill:gray;}</style></defs><g id="Background"><rect class="cls-1" width="500" height="500"/></g><g id="Objects"><path class="cls-2" d="M173.28,169.62h10v20.79h4.61V216H191v30.12h7.09V232h12.28v2.6h2.36v11.57h1.54V219.35h13.82v12.87h9.45V209h15.94V194.07h38.39V209h16.42v17h1.54v3h2V214.86h2.48V197h.94v17.84h3.19v-6.62H320v6.62h2.36v17.36H328V221.71h4.37V219h6v8.39h-.71v4.84h1.89v-2.6H342v-2.48h1.3V213.68h2.95v-4.37h4.25v4.37h3v13.46H359v5.08h7.32v7.92H367V211.43h3.78v-4.25h4.49v-2.36h6.14v2.36h9v-4.84h3.66v4.84h10.51v33H407v13H366.29v18.54H141.74V227.5h2.13V209.78h2v-4.61h9.21v4.61h2.36V227.5h2.84v21.85h5v-3.19h2.95V216h3.07V190.41h2Zm243.8-6.5h1.06v12.76h4.49v3.31h3.43v92.48H409.28V179.19h3.43v-3.31h4.37Z" transform="translate(0 0)"/><path class="cls-2" d="M143,258.56V237.18h-1.65V231.4h-2.48v-4.61h-2.6v1.89h-3.07v-5.43h-1.18v-2.48a2.33,2.33,0,0,0-.36-1.3v-3.78h-.94v2.83a2.3,2.3,0,0,0-1.42-.47h0a1.91,1.91,0,0,0-1.42.47v-2.83H127v3.78a2.33,2.33,0,0,0-.36,1.3v2.48h-1.18v3.3h-7.2v4.85h-.71v5.78h-1.65v2.48H113v3.55h-4.25v-4h-8.27v-3.42H96.15v7.44H92.72v-3.43H87.53v-6.49H85.64V218.88H84.22v-5.79h-.59v3.54h-.47v2.25H81.27v-2.25h-.48v-3.54h-.7v5.79H78.67v48.54H143Z" transform="translate(0 0)"/><path class="cls-2" d="M252.3,258.56V237.18h-1.53V231.4h-2.6v-4.61h-2.6v1.89H242.5v-5.43h-1.18v-2.48a2.33,2.33,0,0,0-.36-1.3v-3.78H240v2.83a2.1,2.1,0,0,0-1.42-.47h0a1.91,1.91,0,0,0-1.42.47v-2.83h-.94v3.78a2.33,2.33,0,0,0-.36,1.3v2.48H234.7v3.3h-7.2v4.85h-.59v5.78h-1.77v2.48H222.3v3.55h-4.13v-4h-8.39v-3.42h-4.25v7.44H202v-3.43h-5.19v-6.49H194.9V218.88h-1.42v-5.79h-.59v3.54h-.47v2.25h-1.89v-2.25h-.48v-3.54h-.7v5.79h-1.42v48.54H252.3Z" transform="translate(0 0)"/><path class="cls-3" d="M151.9,280.18H150v3.31h-5.43v3.19h-8.39v5.08h-.71v2.95h-1.3v2.83H133v2.25h-2v-2.25H129.7v-2.83h-1.3v-2.95H91.66v1.77h-1.3v2.24h-2v-2.24H87.17v-2.72h-2v2h-.94v5.08h-1.3v7.56h-.83V297.9H81v12.87h1.54v1.54H80.32v2.12a2.17,2.17,0,0,1-1.65,2.13h-.24v1.65a10.5,10.5,0,0,0,1.3,2.6c.24.24.24,1.07.24,1.07s.82.35.82.47-.47.47-.7.71-.24.47-.24.47a.79.79,0,0,0,.47.35,7.12,7.12,0,0,1,1.77-.23,3,3,0,0,1,1,.35,4.18,4.18,0,0,1-1.18.12,3.44,3.44,0,0,0-1.3.47,1.81,1.81,0,0,1-1.18,0s-.36,1.3-.71,1.42-1-1.18-1-1.18a1.62,1.62,0,0,1-1.06.83,17,17,0,0,1-2.36-.12,3.31,3.31,0,0,0-1.42.12,2.62,2.62,0,0,1,.94-1.07c.83-.35,2-.47,2.6-.71s.48-.59.24-.82a2.55,2.55,0,0,0-.71-.59V322a1.89,1.89,0,0,0-.47-.23,1.23,1.23,0,0,0,.23-.47A6.83,6.83,0,0,0,76,320.1s.12,0,.24.24,1.41,2,1.41,2a3.64,3.64,0,0,0,.36-.71,5.62,5.62,0,0,0,0-1.42c0-.35-1.18-1.42-1.18-1.42l-.12-2.24h-.24a2.17,2.17,0,0,1-1.65-2.13v-2.12h-2v-1.54h1.3V297.9h-.94v7.56h-1V297.9H71v-5.08H69.93v-2H68v2.72h-1.3v2.24h-2v-2.24h-1.3v-1.77H26.22v2.95h-1.3v2.83h-1.3v2.25h-2v-2.25H20.43v-2.83H19.14v-2.95h-.71V271.67H151.9ZM62.37,288H61V277.34h1.42Zm-2.84,0H58V277.34h1.53Zm-3,0H55.16V277.34h1.42Zm-2.84,0H52.21V277.34h1.53Zm-3,0H49.37V277.34h1.42ZM48,288H46.42V277.34H48Zm-3,0H43.59V277.34H45Zm-2.83,0H40.63V277.34h1.54Zm-3,0H37.8V277.34h1.42Zm-2.84,0H34.85V277.34h1.53Zm-3,0H32V277.34h1.42Zm-2.84,0H29.06V277.34h1.53Zm-2.95,0H26.22V277.34h1.42Zm100.52,0h-1.54V277.34h1.54Zm-3,0h-1.42V277.34h1.42Zm-2.84,0h-1.53V277.34h1.53Zm-3,0H118V277.34h1.42Zm-2.84,0h-1.53V277.34h1.53Zm-3,0h-1.42V277.34h1.42Zm-2.83,0h-1.54V277.34h1.54Zm-3,0h-1.41V277.34h1.41ZM105,288h-1.54V277.34H105Zm-3,0h-1.42V277.34h1.42Zm-2.84,0H97.68V277.34h1.54Zm-3,0H94.85V277.34h1.42Zm-2.84,0H91.9V277.34h1.53Z" transform="translate(0 0)"/><path class="cls-3" d="M481.57,282.31H458.66l-9,30.82H439.17l8.27-30.82H429.6l7.09,30.82H426.18l-7.8-30.82h-10v25.75h-1.77v6.85H403.5v5.67h-3.07v-2.37h-3.78v6.62h-1.42v2.95a3.47,3.47,0,0,1-.47,1.54v4.49h-1.07V330.5a2.86,2.86,0,0,1-1.77.47h0a2.72,2.72,0,0,1-1.65-.47v3.31h-1.18v-4.49a3.27,3.27,0,0,1-.36-1.54v-2.95H387.2v-4.14h-8.63v-5.78h-.71v-6.85h-2v-3h-3.55v-4.37h-5v4.85h-10v4.13h-5.2v-9h-4.25v4.14h-6.14v7.91h-2.24V330H337.7v7H337v-4.26h-.6V330h-2.24v2.71h-.59V337h-.83v-7h-1.65V312.78h-2.25v-7.91H325v-4.14h-2.13v10.16h-1.3V300.73H319.4v9.33h-5.2v-5.55h-8.51v-3.78h-9.8v5h-9v-2.6h-3v.48H282.9v6.61h-.83v-4.37a2.22,2.22,0,0,1-1.54.59h-.23v1.89h-1.54v-2.24a2.09,2.09,0,0,1-.94-1.77v-.12a1.25,1.25,0,0,1,.12-.59h-1.3v-.48h-2.48v2.84h-1.3v.59h0a2.22,2.22,0,0,1-2.13,2.24h-.47a2.24,2.24,0,0,1-2.25-2.24h0v-.59h-1.3v-2.84h-6.49v2.72H257.5v5.55s-2.72,2.48-4.84,4.37v4.14h-1.18V316.8a14.41,14.41,0,0,1-1.18.94l-4,.47-4.13-.47c-.12-.12-.6-.47-1.07-.94v3.07h-1.3v-4.14c-2.12-1.89-4.84-4.37-4.84-4.37v-5.55h-2.72v-2.72H226v2.84h-1.3v.59h0a2.24,2.24,0,0,1-2.24,2.24h-.36a2.24,2.24,0,0,1-2.24-2.24h0v-.59h-1.3v-2.84h-2.13v2.84H215.1a.93.93,0,0,1,.11.59h0a2.32,2.32,0,0,1-2.24,2.24h-.47a2.33,2.33,0,0,1-2.25-2.24h0a.87.87,0,0,1,.12-.59h-1.3v-2.84h-2.95v-1.53h2.95V282.31h-3.19v16.77h-3.07v.71a2.49,2.49,0,0,1-2.48,2.48h-.47a2.47,2.47,0,0,1-2.36-2.48v-.71h-1.42v9.68h-1.77v3.43H188.4v-3.43h-1.77v-9.68h-1.54v.71a2.47,2.47,0,0,1-2.36,2.48h-.47a2.57,2.57,0,0,1-2.48-2.48v-.71h-3v15.71h-.35v4.72h-.94v-4.72h-3.19v2.48h-.24v4H171v-4h-2.13c-.35,4.84-2.13,8.74-4.72,10.63v.24c0,3.07-1.42,5.43-3.31,5.43s-3.19-2.36-3.19-5.43v-.24c-2.6-1.89-4.37-5.79-4.73-10.63h-2.12v4h-1.06v-4h-.24v-2.48h-3.19v4.72h-1.06v-4.72h-.36V299.08h-8.62V271.67H481.57Zm-264,9.56h0a1.32,1.32,0,0,0,1.3-1.3v-6.73a1.32,1.32,0,0,0-1.3-1.3h0a1.31,1.31,0,0,0-1.3,1.3v6.73a1.31,1.31,0,0,0,1.3,1.3Zm10.75,6.26h0a4.21,4.21,0,0,0,4.25-4.13V283.37h-8.39V294a4.19,4.19,0,0,0,4.14,4.13Zm35.31,0h0a4.19,4.19,0,0,0,4.14-4.13V283.37h-8.39V294a4.21,4.21,0,0,0,4.25,4.13Zm-17.6,0h0a4.19,4.19,0,0,0,4.14-4.13V283.37h-8.39V294a4.21,4.21,0,0,0,4.25,4.13Zm29.41-6.26h0a1.31,1.31,0,0,0,1.3-1.3v-6.73a1.31,1.31,0,0,0-1.3-1.3h0a1.31,1.31,0,0,0-1.29,1.3v6.73a1.31,1.31,0,0,0,1.29,1.3Zm11.46-9.56H284.2v19.25h2.71V282.31Z" transform="translate(0 0)"/><path class="cls-4" d="M151.9,263.05H150v-3.31h-5.43v-3.18h-8.39v-5h-.71v-3.07h-1.3v-2.71H133v-2.37h-2v2.37H129.7v2.71h-1.3v3.07H91.66V249.7h-1.3v-2.24h-2v2.24H87.17v2.84h-2v-2.13h-.94v-5.08h-1.3v-7.56h-.83v7.56H81V232.58h.83V231H80.32V228.8a2.17,2.17,0,0,0-1.89-2.13v-.12a10.59,10.59,0,0,1,0-2,12.87,12.87,0,0,1,1.3-2.6c.24-.24.24-1.07.24-1.07s.82-.35.82-.47-.47-.47-.7-.71-.24-.47-.24-.47a.51.51,0,0,1,.47-.24c.24-.11,1.3.24,1.77.12a1.45,1.45,0,0,0,1-.35,9.36,9.36,0,0,1-1.18-.12,3.44,3.44,0,0,1-1.3-.47,1.81,1.81,0,0,0-1.18,0s-.36-1.3-.71-1.42-1,1.18-1,1.18a1.62,1.62,0,0,0-1.06-.83,8.24,8.24,0,0,0-2.36.24,5.1,5.1,0,0,1-1.42-.24,2.68,2.68,0,0,0,.94,1.07c.83.35,2,.47,2.6.71s.48.59.24.82a2.55,2.55,0,0,1-.71.59v.48a1.89,1.89,0,0,1-.47.23l.23.47a6.83,6.83,0,0,1,.24,1.19s.12,0,.24-.24,1.41-2,1.41-2a3.64,3.64,0,0,1,.36.71,6.59,6.59,0,0,1,0,1.54c0,.23-1.18,1.29-1.18,1.29l-.12,2.72a2.17,2.17,0,0,0-1.89,2.13V231H73v1.54h1.06v12.75h-.94v-7.56h-1v7.56H71v5.08H69.93v2.13H68V249.7h-1.3v-2.24h-2v2.24h-1.3v1.89H26.22v-3.07h-1.3v-2.71h-1.3v-2.37h-2v2.37H20.43v2.71H19.14v3.07h-.71v20.08H151.9Zm-89.53-7.79H61v10.63h1.42Zm-2.84,0H58v10.63h1.53Zm-3,0H55.16v10.63h1.42Zm-2.84,0H52.21v10.63h1.53Zm-3,0H49.37v10.63h1.42Zm-2.83,0H46.42v10.63H48Zm-3,0H43.59v10.63H45Zm-2.83,0H40.63v10.63h1.54Zm-3,0H37.8v10.63h1.42Zm-2.84,0H34.85v10.63h1.53Zm-3,0H32v10.63h1.42Zm-2.84,0H29.06v10.63h1.53Zm-2.95,0H26.22v10.63h1.42Zm100.52,0h-1.54v10.63h1.54Zm-3,0h-1.42v10.63h1.42Zm-2.84,0h-1.53v10.63h1.53Zm-3,0H118v10.63h1.42Zm-2.84,0h-1.53v10.63h1.53Zm-3,0h-1.42v10.63h1.42Zm-2.83,0h-1.54v10.63h1.54Zm-3,0h-1.41v10.63h1.41Zm-2.83,0h-1.54v10.63H105Zm-3,0h-1.42v10.63h1.42Zm-2.84,0H97.68v10.63h1.54Zm-3,0H94.85v10.63h1.42Zm-2.84,0H91.9v10.63h1.53Z" transform="translate(0 0)"/><path class="cls-4" d="M481.57,260.93H459.48l-9.8-33.55H439.17l9,33.55H429l7.68-33.55H426.18l-8.51,33.55h-9.33V235.29h-1.77v-7H403.5v-5.56h-3.07V225h-3.78v-6.5h-1.42v-3a4,4,0,0,0-.47-1.66v-4.48h-1.07v3.3a4,4,0,0,0-1.77-.47h0a3.91,3.91,0,0,0-1.65.47v-3.3h-1.18v4.48a3.78,3.78,0,0,0-.36,1.66v3H387.2v4h-8.63v5.79h-.71v7h-2v3h-3.55v4.37h-5v-4.85h-10v-4.25h-5.2v9.1h-4.25v-4.14h-6.14v-7.91h-2.24V213.21H337.7v-6.86H337v4.14h-.6v2.72h-2.24v-2.72h-.59v-4.14h-.83v6.86h-1.65v17.36h-2.25v7.91H325v4.14h-2.13V232.46h-1.3v10.16H319.4v-9.45h-5.2v5.55h-8.51v3.9h-9.8v-5h-9v2.6h-3v-.6H282.9v-6.49h-.83v4.25a2.27,2.27,0,0,0-1.54-.59h-.23v-1.77h-1.54v2.12a2.49,2.49,0,0,0-.94,1.89h0a1,1,0,0,0,.12.59h-1.3v.6h-2.48v-2.84h-1.3v-.59h0a2.15,2.15,0,0,0-2.13-2.24h-.47a2.17,2.17,0,0,0-2.25,2.24h0v.59h-1.3v2.84h-6.49v-2.72H257.5v-5.67s-2.72-2.48-4.84-4.25v-4.26h-1.18v3.08c-.59-.48-.95-.83-1.18-.83l-4-.47-4.13.47a3.38,3.38,0,0,0-1.07.83v-3.08h-1.3v4.26c-2.12,1.77-4.84,4.25-4.84,4.25v5.67h-2.72v2.72H226v-2.84h-1.3v-.59h0a2.16,2.16,0,0,0-2.24-2.24h-.36a2.17,2.17,0,0,0-2.24,2.24h0v.59h-1.3v2.84h-2.13v-2.84H215.1a1.13,1.13,0,0,0,.11-.59h0a2.24,2.24,0,0,0-2.24-2.24h-.47a2.24,2.24,0,0,0-2.25,2.24h0a1,1,0,0,0,.12.59h-1.3v2.84h-2.95v1.53h2.95v19.14h-3.19V244.15h-3.07v-.71a2.4,2.4,0,0,0-2.48-2.36h-.47a2.37,2.37,0,0,0-2.36,2.36v.71h-1.42v-9.56h-1.77v-3.43H188.4v3.43h-1.77v9.56h-1.54v-.71a2.37,2.37,0,0,0-2.36-2.36h-.47a2.48,2.48,0,0,0-2.48,2.36v.71h-3V228.56h-.35v-4.84h-.94v4.84h-3.19V226h-.24v-4H171v4h-2.13c-.35-4.72-2.13-8.74-4.72-10.63v-.23c0-3-1.42-5.44-3.31-5.44s-3.19,2.48-3.19,5.44v.23c-2.6,1.89-4.37,5.91-4.73,10.63h-2.12v-4h-1.06v4h-.24v2.6h-3.19v-4.84h-1.06v4.84h-.36v15.59h-8.62v27.52H481.57Zm-264-9.45h0a1.32,1.32,0,0,1,1.3,1.3v6.73a1.32,1.32,0,0,1-1.3,1.3h0a1.31,1.31,0,0,1-1.3-1.3v-6.73a1.31,1.31,0,0,1,1.3-1.3Zm10.75-6.38h0a4.23,4.23,0,0,1,4.25,4.25V260h-8.39V249.35a4.21,4.21,0,0,1,4.14-4.25Zm35.31,0h0a4.21,4.21,0,0,1,4.14,4.25V260h-8.39V249.35a4.23,4.23,0,0,1,4.25-4.25Zm-17.6,0h0a4.21,4.21,0,0,1,4.14,4.25V260h-8.39V249.35A4.23,4.23,0,0,1,246,245.1Zm29.41,6.38h0a1.31,1.31,0,0,1,1.3,1.3v6.73a1.31,1.31,0,0,1-1.3,1.3h0a1.31,1.31,0,0,1-1.29-1.3v-6.73a1.31,1.31,0,0,1,1.29-1.3Zm11.46,9.45H284.2V241.79h2.71v19.14Z" transform="translate(0 0)"/><text class="cls-5" transform="translate(187.26 399.84)"><tspan class="cls-6">M</tspan><tspan class="cls-7" x="32.89" y="0">A</tspan><tspan class="cls-8" x="59.31" y="0">D</tspan><tspan class="cls-9" x="86.48" y="0">R</tspan><tspan class="cls-10" x="107.16" y="0">I</tspan><tspan x="116.04" y="0">D</tspan></text></g><g id="Designed_by_Freepik" data-name="Designed by Freepik"><path class="cls-11" d="M179.55,464.29v-.16a4.47,4.47,0,0,1-.64.61,2.27,2.27,0,0,1-.69.36,2.64,2.64,0,0,1-.81.12,2.32,2.32,0,0,1-1.08-.25,2.51,2.51,0,0,1-.86-.7,3.33,3.33,0,0,1-.55-1.08,4.7,4.7,0,0,1-.18-1.33,3.47,3.47,0,0,1,.74-2.37,2.45,2.45,0,0,1,2-.85,2.61,2.61,0,0,1,1.18.24,3.29,3.29,0,0,1,.94.74v-2.39a1.25,1.25,0,0,1,.2-.76.67.67,0,0,1,.57-.25.71.71,0,0,1,.56.23,1,1,0,0,1,.2.7v7.14a1,1,0,0,1-.21.7.73.73,0,0,1-.55.23.71.71,0,0,1-.55-.24A1,1,0,0,1,179.55,464.29Zm-3.19-2.38a2.67,2.67,0,0,0,.21,1.12,1.53,1.53,0,0,0,.56.7,1.38,1.38,0,0,0,.78.24,1.45,1.45,0,0,0,.78-.23,1.48,1.48,0,0,0,.56-.68,2.78,2.78,0,0,0,.21-1.15,2.68,2.68,0,0,0-.21-1.11,1.64,1.64,0,0,0-.57-.71,1.37,1.37,0,0,0-1.58,0,1.65,1.65,0,0,0-.54.73A2.83,2.83,0,0,0,176.36,461.91Z" transform="translate(0 0)"/><path class="cls-11" d="M186.7,462.32h-3.17a2.21,2.21,0,0,0,.22,1,1.48,1.48,0,0,0,.58.63,1.53,1.53,0,0,0,.79.21,2.2,2.2,0,0,0,.53-.06,1.82,1.82,0,0,0,.47-.22,2.59,2.59,0,0,0,.41-.31l.49-.45a.64.64,0,0,1,.76,0,.46.46,0,0,1,.16.38,1.12,1.12,0,0,1-.17.52,2.23,2.23,0,0,1-.52.56,2.9,2.9,0,0,1-.88.45,3.69,3.69,0,0,1-1.2.18,3.26,3.26,0,0,1-2.43-.89,3.32,3.32,0,0,1-.87-2.42,3.83,3.83,0,0,1,.22-1.33,2.9,2.9,0,0,1,.62-1.05,2.65,2.65,0,0,1,1-.68,3.75,3.75,0,0,1,1.33-.23,3.15,3.15,0,0,1,1.63.4,2.72,2.72,0,0,1,1,1,2.82,2.82,0,0,1,.33,1.3c0,.41-.11.67-.35.79A2.17,2.17,0,0,1,186.7,462.32Zm-3.17-.92h2.94a2,2,0,0,0-.45-1.24,1.33,1.33,0,0,0-1-.41,1.28,1.28,0,0,0-1,.41A2.07,2.07,0,0,0,183.53,461.4Z" transform="translate(0 0)"/><path class="cls-11" d="M194.08,463.1a2,2,0,0,1-.32,1.15,2,2,0,0,1-1,.72,4.16,4.16,0,0,1-1.55.25,3.79,3.79,0,0,1-1.5-.27,2.22,2.22,0,0,1-.92-.67,1.29,1.29,0,0,1-.29-.8.62.62,0,0,1,.19-.46.66.66,0,0,1,.48-.19.53.53,0,0,1,.39.13,1.27,1.27,0,0,1,.26.35,1.59,1.59,0,0,0,1.54.86,1.33,1.33,0,0,0,.8-.22.6.6,0,0,0,.31-.5.66.66,0,0,0-.32-.62,4.13,4.13,0,0,0-1.07-.37,9.5,9.5,0,0,1-1.36-.44,2.21,2.21,0,0,1-.84-.6,1.38,1.38,0,0,1-.31-.92,1.57,1.57,0,0,1,.29-.92,1.94,1.94,0,0,1,.86-.69,3.27,3.27,0,0,1,1.36-.26,4.33,4.33,0,0,1,1.13.13,2.72,2.72,0,0,1,.84.35,1.6,1.6,0,0,1,.51.49.91.91,0,0,1,.18.52.63.63,0,0,1-.19.46.77.77,0,0,1-.53.17.64.64,0,0,1-.43-.14,2.92,2.92,0,0,1-.4-.43,1.57,1.57,0,0,0-.43-.38,1.44,1.44,0,0,0-.68-.14,1.3,1.3,0,0,0-.73.19.55.55,0,0,0-.29.46.48.48,0,0,0,.22.42,1.68,1.68,0,0,0,.57.27l1,.26a5.76,5.76,0,0,1,1.23.44,2.14,2.14,0,0,1,.73.61A1.34,1.34,0,0,1,194.08,463.1Z" transform="translate(0 0)"/><path class="cls-11" d="M195.74,457.88a.84.84,0,0,1-.58-.21.82.82,0,0,1,0-1.16.84.84,0,0,1,.58-.22.89.89,0,0,1,.56.2.73.73,0,0,1,.24.59.73.73,0,0,1-.24.58A.78.78,0,0,1,195.74,457.88Zm.8,1.67v4.68a1.07,1.07,0,0,1-.23.74.76.76,0,0,1-.59.25.74.74,0,0,1-.58-.26,1.06,1.06,0,0,1-.22-.73V459.6a1,1,0,0,1,.22-.73.75.75,0,0,1,.58-.24.79.79,0,0,1,.59.24A1,1,0,0,1,196.54,459.55Z" transform="translate(0 0)"/><path class="cls-11" d="M203.64,459.82v4.7a5.08,5.08,0,0,1-.17,1.39,2.19,2.19,0,0,1-1.55,1.53,5.53,5.53,0,0,1-1.53.18,4.63,4.63,0,0,1-1.5-.23,2.67,2.67,0,0,1-1-.61,1.08,1.08,0,0,1-.36-.76.6.6,0,0,1,.21-.48.65.65,0,0,1,.48-.19.8.8,0,0,1,.63.31,3.92,3.92,0,0,0,.27.33,1.58,1.58,0,0,0,.3.28,1.53,1.53,0,0,0,.41.17,2.29,2.29,0,0,0,.55.05,2.14,2.14,0,0,0,1-.17,1,1,0,0,0,.49-.49,1.88,1.88,0,0,0,.16-.67c0-.24,0-.63,0-1.16a2.7,2.7,0,0,1-.86.8,2.64,2.64,0,0,1-2.59-.15,2.59,2.59,0,0,1-.94-1.16,4.24,4.24,0,0,1-.32-1.73,4.15,4.15,0,0,1,.19-1.31,2.94,2.94,0,0,1,.57-1,2.36,2.36,0,0,1,.85-.6,2.82,2.82,0,0,1,2.25,0,3,3,0,0,1,.94.83v-.22a.94.94,0,0,1,.21-.65.67.67,0,0,1,.53-.23.63.63,0,0,1,.62.3A1.94,1.94,0,0,1,203.64,459.82Zm-4.7,2.05a2.28,2.28,0,0,0,.43,1.49,1.4,1.4,0,0,0,1.12.51,1.52,1.52,0,0,0,.76-.22,1.61,1.61,0,0,0,.58-.65,2.33,2.33,0,0,0,.23-1.06,2.46,2.46,0,0,0-.44-1.55,1.38,1.38,0,0,0-1.15-.55,1.36,1.36,0,0,0-1.11.53A2.35,2.35,0,0,0,198.94,461.87Z" transform="translate(0 0)"/><path class="cls-11" d="M206.21,459.53v.19a3,3,0,0,1,.94-.83,2.58,2.58,0,0,1,1.17-.26,2.29,2.29,0,0,1,1.14.28,1.69,1.69,0,0,1,.75.79,1.79,1.79,0,0,1,.21.64,6.86,6.86,0,0,1,.05.88v3a1.07,1.07,0,0,1-.22.74.73.73,0,0,1-.58.25.76.76,0,0,1-.59-.26,1.06,1.06,0,0,1-.22-.73v-2.7a2.64,2.64,0,0,0-.23-1.22.9.9,0,0,0-.89-.43,1.31,1.31,0,0,0-.78.26,1.47,1.47,0,0,0-.53.71,5,5,0,0,0-.12,1.35v2a1.06,1.06,0,0,1-.22.74.76.76,0,0,1-.59.25.74.74,0,0,1-.58-.26,1.06,1.06,0,0,1-.23-.73v-4.68a1,1,0,0,1,.21-.69.69.69,0,0,1,.55-.23.7.7,0,0,1,.38.1.74.74,0,0,1,.28.3A1.09,1.09,0,0,1,206.21,459.53Z" transform="translate(0 0)"/><path class="cls-11" d="M216.07,462.32H212.9a2.21,2.21,0,0,0,.23,1,1.46,1.46,0,0,0,.57.63,1.56,1.56,0,0,0,.79.21,2.23,2.23,0,0,0,.54-.06,1.76,1.76,0,0,0,.46-.22,3.25,3.25,0,0,0,.42-.31l.49-.45a.53.53,0,0,1,.36-.11.59.59,0,0,1,.4.14.49.49,0,0,1,.15.38,1,1,0,0,1-.17.52,2.06,2.06,0,0,1-.52.56,3,3,0,0,1-.87.45,3.71,3.71,0,0,1-1.21.18,3.26,3.26,0,0,1-2.43-.89,3.36,3.36,0,0,1-.86-2.42,4.08,4.08,0,0,1,.21-1.33,2.9,2.9,0,0,1,.62-1.05,2.73,2.73,0,0,1,1-.68,3.79,3.79,0,0,1,1.33-.23,3.1,3.1,0,0,1,1.63.4,2.65,2.65,0,0,1,1,1,2.71,2.71,0,0,1,.34,1.3.81.81,0,0,1-.35.79A2.19,2.19,0,0,1,216.07,462.32Zm-3.17-.92h2.94a2,2,0,0,0-.45-1.24,1.32,1.32,0,0,0-1-.41,1.31,1.31,0,0,0-1,.41A2.2,2.2,0,0,0,212.9,461.4Z" transform="translate(0 0)"/><path class="cls-11" d="M222.68,464.29v-.16a4.47,4.47,0,0,1-.64.61,2.53,2.53,0,0,1-.69.36,2.64,2.64,0,0,1-.81.12,2.32,2.32,0,0,1-1.08-.25,2.51,2.51,0,0,1-.86-.7,3.33,3.33,0,0,1-.55-1.08,4.7,4.7,0,0,1-.18-1.33,3.47,3.47,0,0,1,.74-2.37,2.44,2.44,0,0,1,1.95-.85,2.61,2.61,0,0,1,1.18.24,3.43,3.43,0,0,1,.94.74v-2.39a1.25,1.25,0,0,1,.2-.76.67.67,0,0,1,.57-.25.71.71,0,0,1,.56.23,1.08,1.08,0,0,1,.2.7v7.14a1,1,0,0,1-.21.7.75.75,0,0,1-.55.23.69.69,0,0,1-.55-.24A1,1,0,0,1,222.68,464.29Zm-3.19-2.38a2.67,2.67,0,0,0,.21,1.12,1.47,1.47,0,0,0,.56.7,1.32,1.32,0,0,0,.77.24,1.46,1.46,0,0,0,.79-.23,1.48,1.48,0,0,0,.56-.68,2.78,2.78,0,0,0,.21-1.15,2.68,2.68,0,0,0-.21-1.11,1.64,1.64,0,0,0-.57-.71,1.33,1.33,0,0,0-.79-.25,1.3,1.3,0,0,0-.79.25,1.59,1.59,0,0,0-.55.73A3,3,0,0,0,219.49,461.91Z" transform="translate(0 0)"/><path class="cls-11" d="M229.3,457.15v2.47a4,4,0,0,1,.93-.73,2.61,2.61,0,0,1,1.18-.25,2.67,2.67,0,0,1,1.42.38,2.57,2.57,0,0,1,.94,1.11,4.17,4.17,0,0,1,.34,1.73,4.79,4.79,0,0,1-.19,1.35,3.42,3.42,0,0,1-.54,1.06,2.35,2.35,0,0,1-.87.7,2.46,2.46,0,0,1-1.12.25,2.63,2.63,0,0,1-.7-.09,1.93,1.93,0,0,1-.56-.24,2.17,2.17,0,0,1-.4-.29c-.11-.11-.25-.26-.43-.47v.16a.94.94,0,0,1-.22.69.71.71,0,0,1-.55.24A.68.68,0,0,1,228,465a1,1,0,0,1-.21-.69v-7.07a1.22,1.22,0,0,1,.2-.75.66.66,0,0,1,.56-.25.7.7,0,0,1,.57.24A1,1,0,0,1,229.3,457.15Zm.08,4.81a2.28,2.28,0,0,0,.44,1.49A1.47,1.47,0,0,0,231,464a1.34,1.34,0,0,0,1.06-.54,2.33,2.33,0,0,0,.44-1.52,2.81,2.81,0,0,0-.19-1.1,1.57,1.57,0,0,0-.52-.72,1.26,1.26,0,0,0-.79-.25,1.37,1.37,0,0,0-.82.25,1.7,1.7,0,0,0-.57.73A2.83,2.83,0,0,0,229.38,462Z" transform="translate(0 0)"/><path class="cls-11" d="M236.21,465.42l.14-.36-2-5a1.93,1.93,0,0,1-.18-.63.76.76,0,0,1,.1-.39.74.74,0,0,1,.3-.28.68.68,0,0,1,.39-.11.61.61,0,0,1,.52.22,2,2,0,0,1,.32.64l1.37,4,1.3-3.71a6.57,6.57,0,0,1,.28-.71.81.81,0,0,1,.26-.34.76.76,0,0,1,.4-.09.64.64,0,0,1,.35.1.65.65,0,0,1,.26.26.73.73,0,0,1,.09.35c0,.08,0,.18-.07.32s-.08.28-.13.42l-2.12,5.54a6.93,6.93,0,0,1-.53,1.14,1.84,1.84,0,0,1-.69.64,2.55,2.55,0,0,1-1.16.22,2.9,2.9,0,0,1-1.07-.15.57.57,0,0,1-.36-.57.56.56,0,0,1,.17-.43.73.73,0,0,1,.5-.15.75.75,0,0,1,.26,0l.27,0a.94.94,0,0,0,.44-.08.71.71,0,0,0,.28-.29A3.29,3.29,0,0,0,236.21,465.42Z" transform="translate(0 0)"/><path class="cls-11" d="M259.68,458.77h.39v-.49a3.1,3.1,0,0,1,.19-1.21,1.24,1.24,0,0,1,.66-.65,3.07,3.07,0,0,1,1.26-.2c.95,0,1.42.22,1.42.69a.56.56,0,0,1-.15.39.5.5,0,0,1-.35.16l-.33,0a3.22,3.22,0,0,0-.39,0,.59.59,0,0,0-.57.26,1.84,1.84,0,0,0-.12.74v.39h.4c.62,0,.92.18.92.56s-.08.43-.24.5a1.78,1.78,0,0,1-.68.11h-.4v4.29a1,1,0,0,1-.23.73.76.76,0,0,1-.59.26.73.73,0,0,1-.57-.26,1,1,0,0,1-.23-.73v-4.29h-.45a.82.82,0,0,1-.55-.16.51.51,0,0,1-.2-.43c0-.39.27-.58.81-.58" transform="translate(0 0)"/><path class="cls-11" d="M265,462.88v1.35a1.06,1.06,0,0,1-.23.74.76.76,0,0,1-.59.25.73.73,0,0,1-.58-.25,1.07,1.07,0,0,1-.22-.74v-4.51c0-.73.26-1.09.78-1.09a.67.67,0,0,1,.59.25,1.48,1.48,0,0,1,.19.76,2.76,2.76,0,0,1,.6-.76,1.24,1.24,0,0,1,.82-.25,2.08,2.08,0,0,1,1,.25.77.77,0,0,1,.48.68.64.64,0,0,1-.21.49.61.61,0,0,1-.44.19,2.32,2.32,0,0,1-.43-.11,2.13,2.13,0,0,0-.6-.11.9.9,0,0,0-.58.19,1.32,1.32,0,0,0-.36.55,4.74,4.74,0,0,0-.17.88c0,.34,0,.75,0,1.24" transform="translate(0 0)"/><path class="cls-11" d="M272.44,462.32h-3.17a2.13,2.13,0,0,0,.22,1,1.58,1.58,0,0,0,.58.64,1.53,1.53,0,0,0,.79.21,1.79,1.79,0,0,0,.53-.07,1.51,1.51,0,0,0,.47-.21,3.38,3.38,0,0,0,.41-.31l.5-.45a.52.52,0,0,1,.35-.11.62.62,0,0,1,.41.14.49.49,0,0,1,.15.38,1.12,1.12,0,0,1-.17.52,2.06,2.06,0,0,1-.52.56,3,3,0,0,1-.87.45,3.76,3.76,0,0,1-1.21.18,3.24,3.24,0,0,1-2.43-.89,3.32,3.32,0,0,1-.87-2.42,3.83,3.83,0,0,1,.22-1.33,3,3,0,0,1,.62-1.06,2.63,2.63,0,0,1,1-.67,3.54,3.54,0,0,1,1.33-.24,3.16,3.16,0,0,1,1.63.41,2.65,2.65,0,0,1,1,1,2.83,2.83,0,0,1,.34,1.3.8.8,0,0,1-.36.79,2.17,2.17,0,0,1-1,.18m-3.17-.92h2.94a2,2,0,0,0-.45-1.24,1.33,1.33,0,0,0-1-.42,1.3,1.3,0,0,0-1,.42,2,2,0,0,0-.47,1.24" transform="translate(0 0)"/><path class="cls-11" d="M279.18,462.32H276a2.13,2.13,0,0,0,.22,1,1.58,1.58,0,0,0,.58.64,1.53,1.53,0,0,0,.79.21,1.74,1.74,0,0,0,.53-.07,1.51,1.51,0,0,0,.47-.21,3.38,3.38,0,0,0,.41-.31l.5-.45a.52.52,0,0,1,.35-.11.62.62,0,0,1,.41.14.49.49,0,0,1,.15.38,1.12,1.12,0,0,1-.17.52,2.06,2.06,0,0,1-.52.56,3.09,3.09,0,0,1-.87.45,3.76,3.76,0,0,1-1.21.18,3.26,3.26,0,0,1-2.43-.89,3.32,3.32,0,0,1-.87-2.42,3.83,3.83,0,0,1,.22-1.33,3,3,0,0,1,.62-1.06,2.63,2.63,0,0,1,1-.67,3.54,3.54,0,0,1,1.33-.24,3.16,3.16,0,0,1,1.63.41,2.65,2.65,0,0,1,1,1,2.83,2.83,0,0,1,.34,1.3.82.82,0,0,1-.35.79,2.24,2.24,0,0,1-1,.18M276,461.4H279a2,2,0,0,0-.45-1.24,1.33,1.33,0,0,0-1-.42,1.3,1.3,0,0,0-1,.42,2,2,0,0,0-.47,1.24" transform="translate(0 0)"/><path class="cls-11" d="M282.73,459.54v.19a3.41,3.41,0,0,1,.95-.83,2.4,2.4,0,0,1,1.12-.26,2.55,2.55,0,0,1,2.37,1.51,4,4,0,0,1,.37,1.76,4.34,4.34,0,0,1-.21,1.38,3.32,3.32,0,0,1-.58,1,2.61,2.61,0,0,1-.87.65,2.65,2.65,0,0,1-1.08.23,2.35,2.35,0,0,1-1.17-.28,3.39,3.39,0,0,1-.9-.82v2.43c0,.71-.26,1.07-.78,1.07a.62.62,0,0,1-.6-.27,1.74,1.74,0,0,1-.15-.81v-7a1.08,1.08,0,0,1,.2-.7.8.8,0,0,1,1.11,0,.94.94,0,0,1,.22.68m3.18,2.35a2.81,2.81,0,0,0-.2-1.1,1.55,1.55,0,0,0-.54-.7,1.27,1.27,0,0,0-.77-.25,1.45,1.45,0,0,0-1.13.53,2.28,2.28,0,0,0-.46,1.55,2.23,2.23,0,0,0,.46,1.51,1.41,1.41,0,0,0,1.13.53,1.28,1.28,0,0,0,.75-.23,1.64,1.64,0,0,0,.55-.7,2.83,2.83,0,0,0,.21-1.14" transform="translate(0 0)"/><path class="cls-11" d="M289.17,457.87a.84.84,0,0,1-.58-.21.8.8,0,0,1,0-1.15.8.8,0,0,1,.57-.22.82.82,0,0,1,.56.2.72.72,0,0,1,.24.59.75.75,0,0,1-.23.58.84.84,0,0,1-.57.21m.8,1.68v4.68a1.07,1.07,0,0,1-.23.74.76.76,0,0,1-.59.25.74.74,0,0,1-.58-.26,1.12,1.12,0,0,1-.22-.73v-4.64a1.07,1.07,0,0,1,.22-.72.75.75,0,0,1,.58-.24.79.79,0,0,1,.59.24,1,1,0,0,1,.23.68" transform="translate(0 0)"/><path class="cls-11" d="M295.2,464.48l-1.43-2.36-.88.83v1.29a.94.94,0,0,1-.25.72.76.76,0,0,1-.57.26.72.72,0,0,1-.58-.25,1.07,1.07,0,0,1-.22-.74v-6.91a1.36,1.36,0,0,1,.21-.82.69.69,0,0,1,.59-.28.76.76,0,0,1,.6.25,1.16,1.16,0,0,1,.22.75v3.94l1.82-1.92a4.52,4.52,0,0,1,.52-.48.69.69,0,0,1,.43-.13.72.72,0,0,1,.51.19.66.66,0,0,1,.2.48c0,.24-.22.56-.66.95l-.86.79,1.66,2.62.27.44a.67.67,0,0,1,.08.29.83.83,0,0,1-.22.61.75.75,0,0,1-.55.22.61.61,0,0,1-.46-.16,4.53,4.53,0,0,1-.43-.58" transform="translate(0 0)"/><path class="cls-11" d="M298.72,465.22a.93.93,0,0,1-.64-.24.87.87,0,0,1-.26-.67.84.84,0,0,1,.25-.62.86.86,0,0,1,.63-.26.9.9,0,0,1,.64.26.83.83,0,0,1,.27.62.85.85,0,0,1-.27.67.89.89,0,0,1-.62.24" transform="translate(0 0)"/><path class="cls-11" d="M306.78,463.21a1.42,1.42,0,0,1-.18.65,2.09,2.09,0,0,1-.56.65,2.74,2.74,0,0,1-.93.51,4.18,4.18,0,0,1-1.27.19,3.13,3.13,0,0,1-2.35-.88,3.25,3.25,0,0,1-.84-2.35,3.8,3.8,0,0,1,.39-1.76,2.78,2.78,0,0,1,1.11-1.19,3.46,3.46,0,0,1,1.75-.42,3.62,3.62,0,0,1,1.16.19,3.12,3.12,0,0,1,.89.47,2.58,2.58,0,0,1,.55.62,1.23,1.23,0,0,1,.19.62.65.65,0,0,1-.21.49.72.72,0,0,1-.52.2.53.53,0,0,1-.34-.1,1.52,1.52,0,0,1-.3-.34,2.55,2.55,0,0,0-.62-.67,1.52,1.52,0,0,0-2,.33,2.39,2.39,0,0,0-.44,1.54,3.22,3.22,0,0,0,.11.84,1.74,1.74,0,0,0,.33.65,1.34,1.34,0,0,0,.51.41,1.52,1.52,0,0,0,.67.14,1.49,1.49,0,0,0,.83-.22,2,2,0,0,0,.62-.69,1.38,1.38,0,0,1,.32-.43.61.61,0,0,1,.42-.16.62.62,0,0,1,.49.23.73.73,0,0,1,.2.48" transform="translate(0 0)"/><path class="cls-11" d="M313.77,461.92a3.88,3.88,0,0,1-.22,1.34,3,3,0,0,1-.65,1.05,2.92,2.92,0,0,1-1,.67,3.59,3.59,0,0,1-1.34.24,3.54,3.54,0,0,1-1.33-.24,2.82,2.82,0,0,1-1-.68,2.93,2.93,0,0,1-.66-1.05,4,4,0,0,1-.22-1.33,4.15,4.15,0,0,1,.22-1.35,3.16,3.16,0,0,1,.65-1,3,3,0,0,1,1-.67,4,4,0,0,1,2.67,0,3.09,3.09,0,0,1,1,.68,3,3,0,0,1,.65,1,3.85,3.85,0,0,1,.22,1.34m-1.62,0a2.43,2.43,0,0,0-.44-1.54,1.41,1.41,0,0,0-1.17-.55,1.48,1.48,0,0,0-.84.24,1.56,1.56,0,0,0-.56.73,3,3,0,0,0-.19,1.12,2.87,2.87,0,0,0,.19,1.11,1.59,1.59,0,0,0,.55.73,1.44,1.44,0,0,0,.85.25,1.41,1.41,0,0,0,1.17-.55,2.45,2.45,0,0,0,.44-1.54" transform="translate(0 0)"/><path class="cls-11" d="M320,462v2.16a1.11,1.11,0,0,1-.23.76.81.81,0,0,1-.62.26.76.76,0,0,1-.59-.26,1.11,1.11,0,0,1-.23-.76v-2.59c0-.4,0-.72,0-.95a1.06,1.06,0,0,0-.23-.55.71.71,0,0,0-.58-.22,1,1,0,0,0-1.05.55,3.8,3.8,0,0,0-.25,1.57v2.19a1.13,1.13,0,0,1-.23.76.76.76,0,0,1-.6.26.8.8,0,0,1-.61-.26,1.13,1.13,0,0,1-.23-.76v-4.64a1,1,0,0,1,.21-.7.7.7,0,0,1,.56-.23.74.74,0,0,1,.55.22.82.82,0,0,1,.22.61v.16a2.78,2.78,0,0,1,.91-.74,2.34,2.34,0,0,1,1.07-.24,2.2,2.2,0,0,1,1.05.24,1.9,1.9,0,0,1,.72.74,3,3,0,0,1,.88-.74,2.24,2.24,0,0,1,1-.24,2.44,2.44,0,0,1,1.15.26,1.57,1.57,0,0,1,.71.75,3.37,3.37,0,0,1,.21,1.38v3.17a1.11,1.11,0,0,1-.23.76.79.79,0,0,1-.61.26.76.76,0,0,1-.6-.26,1.08,1.08,0,0,1-.24-.76v-2.73a6.35,6.35,0,0,0,0-.84,1,1,0,0,0-.24-.53.78.78,0,0,0-.6-.21,1.18,1.18,0,0,0-.61.19,1.39,1.39,0,0,0-.45.51A4.33,4.33,0,0,0,320,462" transform="translate(0 0)"/><path class="cls-11" d="M244.52,461.53h0Z" transform="translate(0 0)"/><path class="cls-11" d="M244.6,462.05h0a3.64,3.64,0,0,1-.07-.44A3.35,3.35,0,0,0,244.6,462.05Z" transform="translate(0 0)"/><path class="cls-11" d="M245.13,463.55v0Z" transform="translate(0 0)"/><path class="cls-11" d="M245.08,463.45l0-.08Z" transform="translate(0 0)"/><path class="cls-11" d="M244.75,462.63a5.66,5.66,0,0,0,.28.72,6.3,6.3,0,0,1-.28-.72Z" transform="translate(0 0)"/><path class="cls-11" d="M250.79,455.32a5.09,5.09,0,0,1,.81.07l.07-.48a5,5,0,0,0-1.69-.14l-.08-.26a.67.67,0,0,0,.53-.65.66.66,0,1,0-.8.65l.08.29a6.64,6.64,0,0,0-1.83.54l.14.44a8.32,8.32,0,0,1,1.64-.39A11,11,0,0,1,250.79,455.32Z" transform="translate(0 0)"/><path class="cls-11" d="M245.12,457.73h0l.07-.09-.2-.14-.3-.23a4.65,4.65,0,0,0-.88,1.28s0-.05-.06-.07a.58.58,0,0,0-.47-.18h0a.42.42,0,0,1-.27-.1.38.38,0,0,0,.09-.25.42.42,0,1,0-.83,0,.41.41,0,0,0,.42.41h.1a.67.67,0,0,0,.5.21.34.34,0,0,1,.28.1.44.44,0,0,1,.1.26h0a4.43,4.43,0,0,0-.2,1.67l.66,0a5.21,5.21,0,0,1,.23-1.39A7,7,0,0,1,245.12,457.73Z" transform="translate(0 0)"/><path class="cls-11" d="M256.54,455.87a.42.42,0,0,0-.42.42.3.3,0,0,0,0,.1.66.66,0,0,0-.22.51.3.3,0,0,1-.09.27.34.34,0,0,1-.19.09,5.08,5.08,0,0,0-1.09-1.11l-.48.51a7.17,7.17,0,0,1,1.08,1.24,8.83,8.83,0,0,1,.71,1.26l.64-.3a9.81,9.81,0,0,0-.7-1.37.75.75,0,0,0,.21-.12.61.61,0,0,0,.18-.47.42.42,0,0,1,.09-.28.45.45,0,0,0,.26.09.42.42,0,0,0,0-.84Z" transform="translate(0 0)"/><path class="cls-11" d="M254.88,461.62a14.27,14.27,0,0,1-4.24,1.27,16.21,16.21,0,0,1-2.14.14,18.89,18.89,0,0,1-2.23-.14c-.67-.09-1.2-.19-1.52-.26a6.3,6.3,0,0,0,.28.72v0l0,.08,0,.08v0a4.55,4.55,0,0,0,.68,1,3.46,3.46,0,0,0,1.83,1.14h0a7.56,7.56,0,0,0,2.06.26,8.92,8.92,0,0,0,3.55-.73,5.76,5.76,0,0,0,2-1.66,4.67,4.67,0,0,0,.66-1.44,3.77,3.77,0,0,0,.09-1.14A8.65,8.65,0,0,1,254.88,461.62Z" transform="translate(0 0)"/><path class="cls-11" d="M245.4,457.94a7,7,0,0,0-.7,1.41,5.2,5.2,0,0,0-.22,1.54h0q0,.32,0,.63h0a.22.22,0,0,0,0,.08,3.64,3.64,0,0,0,.07.44,16.8,16.8,0,0,0,6,.31,13.5,13.5,0,0,0,4.06-1.2,8.17,8.17,0,0,0,1.32-.78,8.43,8.43,0,0,0-1.09-2.27,5.1,5.1,0,0,0-3.29-2.37,4.81,4.81,0,0,0-.78-.07,10.21,10.21,0,0,0-1.09.07,7.14,7.14,0,0,0-1.58.38,6,6,0,0,0-2.21,1.28l0,0A4.5,4.5,0,0,0,245.4,457.94Zm7.67-.42a1.09,1.09,0,1,1-1.09,1.09A1.09,1.09,0,0,1,253.07,457.52Zm-5.15,0a1.76,1.76,0,1,1-1.76,1.76A1.76,1.76,0,0,1,247.92,457.48Z" transform="translate(0 0)"/></g></svg>